<?xml version="1.0" encoding="UTF-8" standalone="no"?>
<!-- Created with Inkscape (http://www.inkscape.org/) -->

<svg
   xmlns:dc="http://purl.org/dc/elements/1.1/"
   xmlns:cc="http://creativecommons.org/ns#"
   xmlns:rdf="http://www.w3.org/1999/02/22-rdf-syntax-ns#"
   xmlns:svg="http://www.w3.org/2000/svg"
   xmlns="http://www.w3.org/2000/svg"
   xmlns:sodipodi="http://sodipodi.sourceforge.net/DTD/sodipodi-0.dtd"
   xmlns:inkscape="http://www.inkscape.org/namespaces/inkscape"
   width="16"
   height="16"
   viewBox="0 0 4.2333332 4.2333335"
   version="1.1"
   id="svg8"
   inkscape:version="0.92.4 5da689c313, 2019-01-14"
   sodipodi:docname="secure.svg">
  <defs
     id="defs2" />
  <sodipodi:namedview
     id="base"
     pagecolor="#ffffff"
     bordercolor="#666666"
     borderopacity="1.0"
     inkscape:pageopacity="0.0"
     inkscape:pageshadow="2"
     inkscape:zoom="32"
     inkscape:cx="10.214031"
     inkscape:cy="8.6786659"
     inkscape:document-units="mm"
     inkscape:current-layer="layer1"
     showgrid="true"
     units="px"
     inkscape:window-width="1920"
     inkscape:window-height="1046"
     inkscape:window-x="0"
     inkscape:window-y="0"
     inkscape:window-maximized="1">
    <inkscape:grid
       type="xygrid"
       id="grid815"
       empspacing="4" />
    <inkscape:grid
       type="xygrid"
       id="grid817"
       empspacing="1"
       originy="0.13229167"
       originx="0.13229167"
       dotted="true" />
  </sodipodi:namedview>
  <metadata
     id="metadata5">
    <rdf:RDF>
      <cc:Work
         rdf:about="">
        <dc:format>image/svg+xml</dc:format>
        <dc:type
           rdf:resource="http://purl.org/dc/dcmitype/StillImage" />
        <dc:title></dc:title>
      </cc:Work>
    </rdf:RDF>
  </metadata>
  <g
     inkscape:label="Layer 1"
     inkscape:groupmode="layer"
     id="layer1"
     transform="translate(0,-292.76664)">
    <path
       style="fill:#000000;fill-opacity:1;stroke:none;stroke-width:0.99999994px;stroke-linecap:butt;stroke-linejoin:miter;stroke-opacity:1"
       d="M 8.0019531 1.9960938 C 6.3512573 1.9960938 4.9991301 3.3495492 4.9980469 5 C 4.9980464 5.0006613 4.9980469 5.0012918 4.9980469 5.0019531 L 4.9980469 6.9980469 L 3.9980469 6.9980469 L 3.9980469 13.998047 L 11.998047 13.998047 L 11.998047 6.9980469 L 10.998047 6.9980469 L 10.998047 5.1054688 A 0.50083744 0.50083744 0 0 0 10.998047 5.0019531 C 10.998047 3.3506019 9.6533104 1.9960938 8.0019531 1.9960938 z M 8.0019531 3 C 9.1120193 3 10.001953 3.8919059 10.001953 5.0019531 L 9.9941406 5.0019531 L 9.9941406 6.9980469 L 6.0019531 6.9980469 L 6.0019531 5.0214844 A 0.5019685 0.5019685 0 0 0 6.0019531 5.0019531 L 6.0019531 5 C 6.0030127 3.8908754 6.892548 3 8.0019531 3 z "
       transform="matrix(0.26458333,0,0,0.26458333,0,292.76664)"
       id="path821" />
  </g>
</svg>
