<?xml version="1.0" encoding="UTF-8" standalone="no"?>
<svg
   xmlns:dc="http://purl.org/dc/elements/1.1/"
   xmlns:cc="http://creativecommons.org/ns#"
   xmlns:rdf="http://www.w3.org/1999/02/22-rdf-syntax-ns#"
   xmlns:svg="http://www.w3.org/2000/svg"
   xmlns="http://www.w3.org/2000/svg"
   xmlns:sodipodi="http://sodipodi.sourceforge.net/DTD/sodipodi-0.dtd"
   xmlns:inkscape="http://www.inkscape.org/namespaces/inkscape"
   height="32"
   width="32"
   version="1.1"
   id="svg5"
   sodipodi:docname="theweb-mono.svg"
   inkscape:version="0.92.2 5c3e80d, 2017-08-06">
  <metadata
     id="metadata9">
    <rdf:RDF>
      <cc:Work
         rdf:about="">
        <dc:format>image/svg+xml</dc:format>
        <dc:type
           rdf:resource="http://purl.org/dc/dcmitype/StillImage" />
        <dc:title></dc:title>
      </cc:Work>
    </rdf:RDF>
  </metadata>
  <defs
     id="defs7" />
  <sodipodi:namedview
     id="namedview1"
     showgrid="true"
     inkscape:zoom="14.75"
     inkscape:cx="16.399508"
     inkscape:cy="14.851715"
     inkscape:window-width="1280"
     inkscape:window-height="703"
     inkscape:window-x="1920"
     inkscape:window-y="281"
     inkscape:window-maximized="1"
     inkscape:current-layer="svg5">
    <inkscape:grid
       type="xygrid"
       id="grid1px"
       empspacing="4" />
    <inkscape:grid
       type="xygrid"
       id="grid1pxdot"
       empspacing="1"
       dotted="true"
       originy="0.5"
       originx="0.5" />
  </sodipodi:namedview>
  <path
     style="opacity:1;fill:#ffffff;fill-opacity:1;stroke:none;stroke-width:0.99999994;stroke-linecap:round;stroke-linejoin:round;stroke-miterlimit:4;stroke-dasharray:none;stroke-dashoffset:0;stroke-opacity:1;paint-order:normal"
     d="M 15.855469 0 A 15.999999 15.999999 0 0 0 0.54492188 11.859375 A 15.999999 15.999999 0 0 0 11.859375 31.455078 A 15.999999 15.999999 0 0 0 31.455078 20.140625 A 15.999999 15.999999 0 0 0 20.140625 0.54492188 A 15.999999 15.999999 0 0 0 15.855469 0 z M 16 2 A 14 14 0 0 1 30 16 A 14 14 0 0 1 16 30 A 14 14 0 0 1 2 16 A 14 14 0 0 1 16 2 z "
     id="path814-5-8-6-3" />
  <path
     style="opacity:1;fill:#ffffff;fill-opacity:1;stroke:none;stroke-width:1.3619839;stroke-linecap:round;stroke-linejoin:round;stroke-miterlimit:4;stroke-dasharray:none;stroke-dashoffset:0;stroke-opacity:1;paint-order:normal"
     d="m 17.035401,12.136106 c -2.140534,-0.573544 -4.32548,0.687948 -4.898985,2.828334 L 8.1323089,29.908125 a 16,16 0 0 0 3.7267271,1.546394 16,16 0 0 0 19.595981,-11.313563 16,16 0 0 0 0.531553,-3.998665 z"
     id="rect824-9-2-1-5"
     inkscape:connector-curvature="0"
     inkscape:export-filename="/home/victor/newcontemporary.png"
     inkscape:export-xdpi="2165.5593"
     inkscape:export-ydpi="2165.5593" />
  <path
     style="opacity:0.25;fill:#c80000;fill-opacity:1;stroke:none;stroke-width:1.00157475;stroke-linecap:round;stroke-linejoin:round;stroke-miterlimit:4;stroke-dasharray:none;stroke-dashoffset:0;stroke-opacity:1;paint-order:normal"
     d="m 19.346011,18.967122 a 4,4 0 0 0 -4.89898,2.828427 4,4 0 0 0 2.828427,4.898979 4,4 0 0 0 1.001681,0.132925 4,4 0 0 1 -1.898256,-4.514266 4,4 0 0 1 3.897298,-2.961352 4,4 0 0 0 -0.93017,-0.384713 z"
     id="path4654"
     inkscape:connector-curvature="0" />
  <path
     style="opacity:0.5;fill:#c80000;fill-opacity:1;stroke:none;stroke-width:1.00157475;stroke-linecap:round;stroke-linejoin:round;stroke-miterlimit:4;stroke-dasharray:none;stroke-dashoffset:0;stroke-opacity:1;paint-order:normal"
     d="m 21.277862,19.48476 a 4,4 0 0 0 -4.898979,2.828427 4,4 0 0 0 2.828427,4.898979 4,4 0 0 0 1.001681,0.132925 4,4 0 0 1 -1.898257,-4.514266 4,4 0 0 1 3.897299,-2.961352 4,4 0 0 0 -0.930171,-0.384713 z"
     id="path4654-0"
     inkscape:connector-curvature="0" />
  <circle
     style="opacity:1;fill:#c80000;fill-opacity:1;stroke:none;stroke-width:1.00157475;stroke-linecap:round;stroke-linejoin:round;stroke-miterlimit:4;stroke-dasharray:none;stroke-dashoffset:0;stroke-opacity:1;paint-order:normal"
     id="path4654-6"
     cx="27.595863"
     cy="17.313717"
     r="4"
     transform="rotate(15)" />
</svg>
