<?xml version="1.0" encoding="UTF-8" standalone="no"?>
<!-- Created with Inkscape (http://www.inkscape.org/) -->

<svg
   xmlns:dc="http://purl.org/dc/elements/1.1/"
   xmlns:cc="http://creativecommons.org/ns#"
   xmlns:rdf="http://www.w3.org/1999/02/22-rdf-syntax-ns#"
   xmlns:svg="http://www.w3.org/2000/svg"
   xmlns="http://www.w3.org/2000/svg"
   xmlns:xlink="http://www.w3.org/1999/xlink"
   xmlns:sodipodi="http://sodipodi.sourceforge.net/DTD/sodipodi-0.dtd"
   xmlns:inkscape="http://www.inkscape.org/namespaces/inkscape"
   width="20"
   height="10"
   viewBox="0 0 5.2916665 2.6458334"
   version="1.1"
   id="svg843"
   inkscape:version="0.92.4 5da689c313, 2019-01-14"
   sodipodi:docname="splash.svg"
   inkscape:export-filename="/home/victor/Documents/Apps/theWeb/readme/splash.png"
   inkscape:export-xdpi="9600"
   inkscape:export-ydpi="9600">
  <defs
     id="defs837">
    <linearGradient
       inkscape:collect="always"
       id="linearGradient9457">
      <stop
         style="stop-color:#640000;stop-opacity:1"
         offset="0"
         id="stop9453" />
      <stop
         style="stop-color:#c80000;stop-opacity:1"
         offset="1"
         id="stop9455" />
    </linearGradient>
    <linearGradient
       inkscape:collect="always"
       xlink:href="#linearGradient9085"
       id="linearGradient2317"
       x1="0"
       y1="296.99997"
       x2="5.2916665"
       y2="294.35416"
       gradientUnits="userSpaceOnUse" />
    <linearGradient
       id="linearGradient9085"
       inkscape:collect="always">
      <stop
         id="stop9081"
         offset="0"
         style="stop-color:#6464ff;stop-opacity:1" />
      <stop
         id="stop9083"
         offset="1"
         style="stop-color:#c8c8ff;stop-opacity:1" />
    </linearGradient>
    <linearGradient
       gradientTransform="matrix(0.10000001,0,0,0.80001203,0.26458333,58.867237)"
       inkscape:collect="always"
       xlink:href="#linearGradient9085"
       id="linearGradient2317-3-2"
       x1="0"
       y1="296.99997"
       x2="5.2916665"
       y2="294.35419"
       gradientUnits="userSpaceOnUse" />
    <linearGradient
       inkscape:collect="always"
       xlink:href="#linearGradient9209"
       id="linearGradient2515"
       x1="0.52916664"
       y1="296.47083"
       x2="0.52916664"
       y2="294.35416"
       gradientUnits="userSpaceOnUse" />
    <linearGradient
       id="linearGradient9209"
       inkscape:collect="always">
      <stop
         id="stop9205"
         offset="0"
         style="stop-color:#0064d9;stop-opacity:1" />
      <stop
         id="stop9207"
         offset="1"
         style="stop-color:#22c8ff;stop-opacity:1" />
    </linearGradient>
    <linearGradient
       gradientTransform="translate(0,9.5417321e-6)"
       inkscape:collect="always"
       xlink:href="#linearGradient9457"
       id="linearGradient2515-7"
       x1="0.52916664"
       y1="296.47083"
       x2="0.52916664"
       y2="294.35416"
       gradientUnits="userSpaceOnUse" />
    <linearGradient
       inkscape:collect="always"
       xlink:href="#linearGradient11338"
       id="linearGradient822-63-8-4-2"
       x1="4.6862917"
       y1="35.595917"
       x2="27.313709"
       y2="-3.5959179"
       gradientUnits="userSpaceOnUse"
       gradientTransform="matrix(0.02068083,0,0,0.02068083,78.141743,284.60994)" />
    <linearGradient
       inkscape:collect="always"
       id="linearGradient11338">
      <stop
         style="stop-color:#640000;stop-opacity:1"
         offset="0"
         id="stop11334" />
      <stop
         style="stop-color:#c80000;stop-opacity:1"
         offset="1"
         id="stop11336" />
    </linearGradient>
  </defs>
  <sodipodi:namedview
     id="base"
     pagecolor="#ffffff"
     bordercolor="#666666"
     borderopacity="1.0"
     inkscape:pageopacity="0.0"
     inkscape:pageshadow="2"
     inkscape:zoom="31.678384"
     inkscape:cx="14.707334"
     inkscape:cy="1.1029513"
     inkscape:document-units="mm"
     inkscape:current-layer="layer1"
     showgrid="true"
     units="px"
     showguides="true"
     inkscape:window-width="1920"
     inkscape:window-height="1046"
     inkscape:window-x="0"
     inkscape:window-y="0"
     inkscape:window-maximized="1">
    <inkscape:grid
       type="xygrid"
       id="grid1391"
       enabled="true" />
    <inkscape:grid
       type="xygrid"
       id="grid1393"
       originy="0.13229167"
       originx="0.13229167"
       dotted="true"
       empspacing="1"
       enabled="true" />
  </sodipodi:namedview>
  <metadata
     id="metadata840">
    <rdf:RDF>
      <cc:Work
         rdf:about="">
        <dc:format>image/svg+xml</dc:format>
        <dc:type
           rdf:resource="http://purl.org/dc/dcmitype/StillImage" />
        <dc:title></dc:title>
      </cc:Work>
    </rdf:RDF>
  </metadata>
  <g
     inkscape:label="Layer 1"
     inkscape:groupmode="layer"
     id="layer1"
     transform="translate(0,-294.35415)">
    <rect
       style="opacity:1;fill:#ffffff;fill-opacity:1;stroke:none;stroke-width:0.26499999;stroke-linecap:round;stroke-linejoin:round;stroke-miterlimit:4;stroke-dasharray:none;stroke-dashoffset:0;stroke-opacity:1;paint-order:normal"
       id="rect2664-1"
       width="5.2916665"
       height="2.6458333"
       x="0"
       y="294.35416" />
    <path
       style="fill:url(#linearGradient2515-7);fill-opacity:1.0;stroke:none;stroke-width:0.26458332px;stroke-linecap:butt;stroke-linejoin:miter;stroke-opacity:1"
       d="m 0.26458333,294.35415 v 2.11667 l 0.26458334,-0.26459 0.26458333,0.26459 v -2.11667 z"
       id="path2507-4"
       inkscape:connector-curvature="0"
       sodipodi:nodetypes="cccccc" />
    <circle
       style="opacity:1;fill:url(#linearGradient822-63-8-4-2);fill-opacity:1;stroke:none;stroke-width:0.26458335;stroke-linecap:round;stroke-linejoin:round;stroke-miterlimit:4;stroke-dasharray:none;stroke-dashoffset:0;stroke-opacity:1;paint-order:normal"
       id="path814-5-8-6-3"
       cx="78.472626"
       cy="284.94089"
       r="0.33089319"
       inkscape:export-filename="/home/victor/newcontemporary.png"
       inkscape:export-xdpi="2165.5593"
       inkscape:export-ydpi="2165.5593"
       transform="rotate(14.999999)" />
    <path
       style="opacity:1;fill:#000000;fill-opacity:1;stroke:none;stroke-width:0.36035824;stroke-linecap:round;stroke-linejoin:round;stroke-miterlimit:4;stroke-dasharray:none;stroke-dashoffset:0;stroke-opacity:1;paint-order:normal"
       d="m 2.0720465,295.46199 c -0.044267,-0.0119 -0.089454,0.0142 -0.1013145,0.0585 l -0.082808,0.30905 a 0.33089318,0.33089318 0 0 0 0.077072,0.0319 0.33089318,0.33089318 0 0 0 0.405261,-0.23397 0.33089318,0.33089318 0 0 0 0.010993,-0.0827 z"
       id="rect824-9-2-1-5"
       inkscape:connector-curvature="0"
       inkscape:export-filename="/home/victor/newcontemporary.png"
       inkscape:export-xdpi="2165.5593"
       inkscape:export-ydpi="2165.5593" />
    <path
       style="opacity:0.25;fill:#ffffff;fill-opacity:1;stroke:none;stroke-width:0.26499999;stroke-linecap:round;stroke-linejoin:round;stroke-miterlimit:4;stroke-dasharray:none;stroke-dashoffset:0;stroke-opacity:1;paint-order:normal"
       d="m 2.1198319,295.60326 a 0.0827233,0.0827233 0 0 0 -0.1013145,0.0585 0.0827233,0.0827233 0 0 0 0.058495,0.1013 0.0827233,0.0827233 0 0 0 0.020715,0.003 0.0827233,0.0827233 0 0 1 -0.039257,-0.0934 0.0827233,0.0827233 0 0 1 0.080599,-0.0613 0.0827233,0.0827233 0 0 0 -0.019236,-0.008 z"
       id="path4654"
       inkscape:connector-curvature="0" />
    <path
       style="opacity:0.5;fill:#ffffff;fill-opacity:1;stroke:none;stroke-width:0.26499999;stroke-linecap:round;stroke-linejoin:round;stroke-miterlimit:4;stroke-dasharray:none;stroke-dashoffset:0;stroke-opacity:1;paint-order:normal"
       d="m 2.1597842,295.61397 a 0.0827233,0.0827233 0 0 0 -0.1013146,0.0585 0.0827233,0.0827233 0 0 0 0.058494,0.1013 0.0827233,0.0827233 0 0 0 0.020715,0.002 0.0827233,0.0827233 0 0 1 -0.039257,-0.0934 0.0827233,0.0827233 0 0 1 0.080599,-0.0613 0.0827233,0.0827233 0 0 0 -0.019237,-0.008 z"
       id="path4654-0"
       inkscape:connector-curvature="0" />
    <circle
       style="opacity:1;fill:#ffffff;fill-opacity:1;stroke:none;stroke-width:0.26500002;stroke-linecap:round;stroke-linejoin:round;stroke-miterlimit:4;stroke-dasharray:none;stroke-dashoffset:0;stroke-opacity:1;paint-order:normal"
       id="path4654-6"
       cx="78.638077"
       cy="285.06494"
       r="0.08272329"
       transform="rotate(14.999999)" />
    <g
       aria-label="theWeb"
       style="font-style:normal;font-variant:normal;font-weight:normal;font-stretch:normal;font-size:0.45235804px;line-height:1.25;font-family:Contemporary;-inkscape-font-specification:Contemporary;letter-spacing:0px;word-spacing:0px;fill:#000000;fill-opacity:1;stroke:none;stroke-width:0.26458332"
       id="text9433">
      <path
         d="m 2.5844291,295.69069 q 0,0.005 0.00407,0.009 0.00452,0.003 0.0095,0.003 h 0.016737 q 0.00498,0 0.00859,-0.004 0.00362,-0.004 0.00362,-0.009 l -0.00136,-0.18411 h 0.047498 q 0.00498,0 0.00859,-0.004 0.00362,-0.004 0.00362,-0.009 v -0.0145 q 0,-0.005 -0.00362,-0.009 -0.00362,-0.004 -0.00859,-0.004 h -0.047498 v -0.0737 q 0,-0.005 -0.00362,-0.009 -0.00362,-0.004 -0.00859,-0.004 h -0.016737 q -0.00498,0 -0.00859,0.004 -0.00362,0.004 -0.00362,0.009 v 0.0737 h -0.043426 q -0.00498,0 -0.00859,0.004 -0.00362,0.004 -0.00362,0.009 v 0.0145 q 0,0.005 0.00362,0.009 0.00362,0.004 0.00859,0.004 h 0.043426 z"
         style="stroke-width:0.26458332"
         id="path9480" />
      <path
         d="m 2.9440536,295.69024 q 0,0.005 -0.00362,0.009 -0.00362,0.004 -0.00859,0.004 h -0.016737 q -0.00498,0 -0.00859,-0.004 -0.00362,-0.004 -0.00362,-0.009 v -0.11942 q 0,-0.0339 -0.016737,-0.0516 -0.016737,-0.0176 -0.046593,-0.0176 -0.029403,0 -0.046593,0.0176 -0.016737,0.0176 -0.016737,0.0516 v 0.11942 q 0,0.005 -0.00362,0.009 -0.00362,0.004 -0.00859,0.004 h -0.016737 q -0.00498,0 -0.00859,-0.004 -0.00362,-0.004 -0.00362,-0.009 v -0.29675 q 0,-0.005 0.00362,-0.009 0.00362,-0.004 0.00859,-0.004 h 0.016737 q 0.00498,0 0.00859,0.004 0.00362,0.004 0.00362,0.009 v 0.1 q 0.00995,-0.0131 0.027141,-0.0217 0.017642,-0.009 0.042974,-0.009 0.028498,0 0.050664,0.0122 0.022166,0.0122 0.034379,0.0353 0.012666,0.0226 0.012666,0.0538 z"
         style="stroke-width:0.26458332"
         id="path9482" />
      <path
         d="m 3.1023791,295.4627 q 0.048402,0 0.076449,0.0308 0.028046,0.0308 0.028046,0.0837 v 0.0122 q 0,0.005 -0.00362,0.009 -0.00362,0.004 -0.00859,0.004 H 3.039049 v 0.003 q 9.047e-4,0.0299 0.018094,0.0471 0.017642,0.0167 0.045236,0.0167 0.022618,0 0.034832,-0.006 0.012666,-0.006 0.022618,-0.0167 0.00362,-0.004 0.00633,-0.005 0.00317,-0.001 0.00814,-0.001 h 0.013571 q 0.00543,0 0.00905,0.004 0.00362,0.004 0.00317,0.009 -0.00181,0.0122 -0.013571,0.0253 -0.011309,0.0127 -0.033022,0.0217 -0.021261,0.009 -0.051116,0.009 -0.028951,0 -0.051569,-0.0131 -0.022618,-0.0136 -0.036189,-0.0371 -0.013118,-0.0235 -0.015832,-0.0529 -9.047e-4,-0.0136 -9.047e-4,-0.0208 0,-0.007 9.047e-4,-0.0208 0.00271,-0.028 0.015832,-0.0507 0.013571,-0.0226 0.035736,-0.0357 0.022618,-0.0131 0.052021,-0.0131 z m 0.063783,0.10088 v -0.001 q 0,-0.0276 -0.017642,-0.0439 -0.01719,-0.0167 -0.046141,-0.0167 -0.026237,0 -0.044783,0.0167 -0.018094,0.0167 -0.018547,0.0439 v 0.001 z"
         style="stroke-width:0.26458332"
         id="path9484" />
      <path
         d="m 3.4710509,295.64817 0.046141,-0.25015 q 0.00136,-0.006 0.00498,-0.009 0.00407,-0.003 0.00905,-0.003 h 0.018094 q 0.00407,0 0.00679,0.003 0.00317,0.003 0.00317,0.007 l -4.523e-4,0.004 -0.05564,0.27956 q -0.00271,0.0122 -0.00724,0.0181 -0.00452,0.005 -0.014928,0.005 h -0.018094 q -0.00995,0 -0.014928,-0.006 -0.00498,-0.006 -0.00814,-0.0176 l -0.041617,-0.15109 -0.041617,0.15109 q -0.00317,0.0113 -0.00814,0.0176 -0.00498,0.006 -0.014928,0.006 h -0.018094 q -0.010404,0 -0.014928,-0.005 -0.00452,-0.006 -0.00724,-0.0181 l -0.05564,-0.27956 -4.524e-4,-0.004 q 0,-0.004 0.00271,-0.007 0.00317,-0.003 0.00724,-0.003 h 0.018094 q 0.00498,0 0.00859,0.003 0.00407,0.003 0.00543,0.009 l 0.04614,0.25015 0.049759,-0.17913 q 9.047e-4,-0.005 0.00452,-0.009 0.00362,-0.005 0.010857,-0.005 h 0.01538 q 0.00724,0 0.010857,0.005 0.00362,0.004 0.00452,0.009 z"
         style="stroke-width:0.26458332"
         id="path9486" />
      <path
         d="m 3.6936107,295.4627 q 0.048402,0 0.076449,0.0308 0.028046,0.0308 0.028046,0.0837 v 0.0122 q 0,0.005 -0.00362,0.009 -0.00362,0.004 -0.00859,0.004 H 3.6302806 v 0.003 q 9.047e-4,0.0299 0.018094,0.0471 0.017642,0.0167 0.045236,0.0167 0.022618,0 0.034832,-0.006 0.012666,-0.006 0.022618,-0.0167 0.00362,-0.004 0.00633,-0.005 0.00317,-0.001 0.00814,-0.001 h 0.013571 q 0.00543,0 0.00905,0.004 0.00362,0.004 0.00317,0.009 -0.00181,0.0122 -0.013571,0.0253 -0.011309,0.0127 -0.033022,0.0217 -0.021261,0.009 -0.051116,0.009 -0.028951,0 -0.051569,-0.0131 -0.022618,-0.0136 -0.036189,-0.0371 -0.013118,-0.0235 -0.015832,-0.0529 -9.047e-4,-0.0136 -9.047e-4,-0.0208 0,-0.007 9.047e-4,-0.0208 0.00271,-0.028 0.015832,-0.0507 0.013571,-0.0226 0.035736,-0.0357 0.022618,-0.0131 0.052021,-0.0131 z m 0.063783,0.10088 v -0.001 q 0,-0.0276 -0.017642,-0.0439 -0.01719,-0.0167 -0.046141,-0.0167 -0.026237,0 -0.044783,0.0167 -0.018094,0.0167 -0.018547,0.0439 v 0.001 z"
         style="stroke-width:0.26458332"
         id="path9488" />
      <path
         d="m 4.0668057,295.56991 q 4.523e-4,0.005 4.523e-4,0.0145 0,0.0104 -4.523e-4,0.0149 -0.00136,0.0326 -0.01538,0.057 -0.013571,0.0244 -0.036641,0.0375 -0.022618,0.0131 -0.050664,0.0131 -0.047045,0 -0.070115,-0.0308 v 0.014 q 0,0.005 -0.00362,0.009 -0.00362,0.004 -0.00859,0.004 H 3.865054 q -0.00498,0 -0.00859,-0.004 -0.00362,-0.004 -0.00362,-0.009 v -0.29675 q 0,-0.005 0.00362,-0.009 0.00362,-0.004 0.00859,-0.004 h 0.016737 q 0.00498,0 0.00859,0.004 0.00362,0.004 0.00362,0.009 v 0.1 q 0.00995,-0.0131 0.027141,-0.0217 0.017642,-0.009 0.042974,-0.009 0.028498,0 0.051116,0.0131 0.022618,0.0131 0.036189,0.0376 0.014023,0.024 0.01538,0.0565 z m -0.1072089,0.0982 q 0.029403,0 0.046593,-0.0185 0.01719,-0.019 0.019451,-0.052 4.523e-4,-0.005 4.523e-4,-0.0127 0,-0.0385 -0.017642,-0.0606 -0.01719,-0.0226 -0.048855,-0.0226 -0.028498,0 -0.045688,0.0176 -0.01719,0.0176 -0.019904,0.0493 -4.524e-4,0.005 -4.524e-4,0.0176 0,0.0136 4.524e-4,0.0181 0.00226,0.0294 0.019904,0.0466 0.018094,0.0172 0.045688,0.0172 z"
         style="stroke-width:0.26458332"
         id="path9490" />
    </g>
    <g
       aria-label="Web Browser"
       style="font-style:normal;font-variant:normal;font-weight:normal;font-stretch:normal;font-size:0.20879641px;line-height:1.25;font-family:Contemporary;-inkscape-font-specification:Contemporary;letter-spacing:0px;word-spacing:0px;fill:#000000;fill-opacity:1;stroke:none;stroke-width:0.26458332"
       id="text9433-6">
      <path
         d="m 2.6386947,295.99756 0.021297,-0.11547 q 6.264e-4,-0.003 0.0023,-0.004 0.00188,-0.001 0.00418,-0.001 h 0.00835 q 0.00188,0 0.00313,0.001 0.00146,0.001 0.00146,0.003 l -2.088e-4,0.002 -0.025682,0.12904 q -0.00125,0.006 -0.00334,0.008 -0.00209,0.002 -0.00689,0.002 h -0.00835 q -0.00459,0 -0.00689,-0.003 -0.0023,-0.003 -0.00376,-0.008 l -0.019209,-0.0697 -0.019209,0.0697 q -0.00146,0.005 -0.00376,0.008 -0.0023,0.003 -0.00689,0.003 h -0.00835 q -0.0048,0 -0.00689,-0.002 -0.00209,-0.003 -0.00334,-0.008 l -0.025682,-0.12904 -2.088e-4,-0.002 q 0,-0.002 0.00125,-0.003 0.00146,-0.001 0.00334,-0.001 h 0.00835 q 0.0023,0 0.00397,0.001 0.00188,0.001 0.00251,0.004 l 0.021297,0.11547 0.022968,-0.0827 q 4.176e-4,-0.002 0.00209,-0.004 0.00167,-0.002 0.00501,-0.002 h 0.0071 q 0.00334,0 0.00501,0.002 0.00167,0.002 0.00209,0.004 z"
         style="stroke-width:0.26458332"
         id="path9459" />
      <path
         d="m 2.7414224,295.91195 q 0.022341,0 0.035287,0.0142 0.012945,0.0142 0.012945,0.0386 v 0.006 q 0,0.002 -0.00167,0.004 -0.00167,0.002 -0.00397,0.002 h -0.071826 v 0.001 q 4.176e-4,0.0138 0.00835,0.0217 0.00814,0.008 0.02088,0.008 0.01044,0 0.016077,-0.003 0.00585,-0.003 0.01044,-0.008 0.00167,-0.002 0.00292,-0.002 0.00146,-6.3e-4 0.00376,-6.3e-4 h 0.00626 q 0.00251,0 0.00418,0.002 0.00167,0.002 0.00146,0.004 -8.352e-4,0.006 -0.00626,0.0117 -0.00522,0.006 -0.015242,0.01 -0.00981,0.004 -0.023594,0.004 -0.013363,0 -0.023803,-0.006 -0.01044,-0.006 -0.016704,-0.0171 -0.00606,-0.0109 -0.00731,-0.0244 -4.176e-4,-0.006 -4.176e-4,-0.01 0,-0.003 4.176e-4,-0.01 0.00125,-0.013 0.00731,-0.0234 0.00626,-0.0104 0.016495,-0.0165 0.01044,-0.006 0.024012,-0.006 z m 0.02944,0.0466 v -6.2e-4 q 0,-0.0127 -0.00814,-0.0203 -0.00793,-0.008 -0.021297,-0.008 -0.01211,0 -0.020671,0.008 -0.00835,0.008 -0.00856,0.0203 v 6.2e-4 z"
         style="stroke-width:0.26458332"
         id="path9461" />
      <path
         d="m 2.9136793,295.96144 q 2.088e-4,0.002 2.088e-4,0.007 0,0.005 -2.088e-4,0.007 -6.264e-4,0.015 -0.0071,0.0263 -0.00626,0.0113 -0.016913,0.0173 -0.01044,0.006 -0.023385,0.006 -0.021715,0 -0.032364,-0.0142 v 0.006 q 0,0.002 -0.00167,0.004 -0.00167,0.002 -0.00397,0.002 h -0.00773 q -0.0023,0 -0.00397,-0.002 -0.00167,-0.002 -0.00167,-0.004 v -0.13697 q 0,-0.002 0.00167,-0.004 0.00167,-0.002 0.00397,-0.002 h 0.00773 q 0.0023,0 0.00397,0.002 0.00167,0.002 0.00167,0.004 v 0.0461 q 0.00459,-0.006 0.012528,-0.01 0.00814,-0.004 0.019836,-0.004 0.013154,0 0.023594,0.006 0.01044,0.006 0.016704,0.0173 0.00647,0.0111 0.0071,0.0261 z m -0.049485,0.0453 q 0.013572,0 0.021506,-0.009 0.00793,-0.009 0.00898,-0.024 2.088e-4,-0.002 2.088e-4,-0.006 0,-0.0177 -0.00814,-0.028 -0.00793,-0.0104 -0.02255,-0.0104 -0.013154,0 -0.021088,0.008 -0.00793,0.008 -0.00919,0.0228 -2.088e-4,0.002 -2.088e-4,0.008 0,0.006 2.088e-4,0.008 0.00104,0.0136 0.00919,0.0215 0.00835,0.008 0.021088,0.008 z"
         style="stroke-width:0.26458332"
         id="path9463" />
      <path
         d="m 2.9930217,295.88209 q 0,-0.002 0.00167,-0.004 0.00167,-0.002 0.00397,-0.002 h 0.055957 q 0.016495,0 0.026726,0.006 0.010231,0.006 0.014616,0.0152 0.00438,0.009 0.00438,0.0175 0,0.0117 -0.00564,0.019 -0.00564,0.007 -0.011066,0.0104 0.00877,0.006 0.014198,0.015 0.00564,0.009 0.00564,0.0201 0,0.0109 -0.00543,0.0207 -0.00522,0.01 -0.01566,0.0157 -0.01044,0.006 -0.024847,0.006 h -0.058881 q -0.0023,0 -0.00397,-0.002 -0.00167,-0.002 -0.00167,-0.004 z m 0.019836,0.0553 h 0.039671 q 0.013781,0 0.02088,-0.005 0.0071,-0.005 0.0071,-0.0157 0,-0.0102 -0.0071,-0.0157 -0.0071,-0.005 -0.02088,-0.005 h -0.039671 z m 0,0.0664 h 0.042594 q 0.013363,0 0.020671,-0.007 0.00752,-0.007 0.00752,-0.0169 0,-0.0102 -0.0071,-0.0171 -0.0071,-0.007 -0.021088,-0.007 h -0.042594 z"
         style="stroke-width:0.26458332"
         id="path9465" />
      <path
         d="m 3.1851144,295.91404 q 0.0023,0 0.00397,0.002 0.00167,0.002 0.00167,0.004 v 0.007 q 0,0.002 -0.00167,0.004 -0.00167,0.002 -0.00397,0.002 h -0.01211 q -0.011693,0 -0.017956,0.006 -0.00606,0.006 -0.00606,0.0177 v 0.061 q 0,0.002 -0.00167,0.004 -0.00167,0.002 -0.00397,0.002 h -0.00773 q -0.0023,0 -0.00397,-0.002 -0.00167,-0.002 -0.00167,-0.004 v -0.0973 q 0,-0.002 0.00167,-0.004 0.00167,-0.002 0.00397,-0.002 h 0.00773 q 0.0023,0 0.00397,0.002 0.00167,0.002 0.00167,0.004 v 0.006 q 0.00418,-0.006 0.010022,-0.009 0.00585,-0.003 0.015242,-0.003 z"
         style="stroke-width:0.26458332"
         id="path9467" />
      <path
         d="m 3.3005789,295.95851 q 4.176e-4,0.005 4.176e-4,0.01 0,0.005 -4.176e-4,0.01 -0.00188,0.0213 -0.014825,0.034 -0.012736,0.0125 -0.03466,0.0125 -0.021924,0 -0.034869,-0.0125 -0.012737,-0.0127 -0.014616,-0.034 -2.088e-4,-0.002 -2.088e-4,-0.01 0,-0.008 2.088e-4,-0.01 0.00167,-0.0213 0.014616,-0.0338 0.012945,-0.0127 0.034869,-0.0127 0.021924,0 0.034869,0.0127 0.012945,0.0125 0.014616,0.0338 z m -0.019001,0.001 q -0.00125,-0.0134 -0.00898,-0.0215 -0.00752,-0.008 -0.021506,-0.008 -0.013989,0 -0.021715,0.008 -0.00752,0.008 -0.00877,0.0215 -2.088e-4,0.002 -2.088e-4,0.009 0,0.006 2.088e-4,0.009 0.00125,0.0134 0.00877,0.0215 0.00773,0.008 0.021715,0.008 0.013989,0 0.021506,-0.008 0.00773,-0.008 0.00898,-0.0215 4.176e-4,-0.005 4.176e-4,-0.009 0,-0.004 -4.176e-4,-0.009 z"
         style="stroke-width:0.26458332"
         id="path9469" />
      <path
         d="m 3.4494508,295.91905 q 0.00188,-0.005 0.0071,-0.005 h 0.00689 q 0.00209,0 0.00355,0.001 0.00146,0.001 0.00146,0.004 l -2.088e-4,0.002 -0.031946,0.096 q -0.00188,0.006 -0.00626,0.006 H 3.42356 q -0.00251,0 -0.00397,-0.001 -0.00146,-0.002 -0.00251,-0.004 l -0.024847,-0.0693 -0.024847,0.0693 q -0.00104,0.003 -0.00251,0.004 -0.00146,0.001 -0.00397,0.001 h -0.00647 q -0.00438,0 -0.00626,-0.006 l -0.031946,-0.096 -2.088e-4,-0.002 q 0,-0.002 0.00146,-0.004 0.00146,-0.001 0.00355,-0.001 h 0.00689 q 0.00522,0 0.0071,0.005 l 0.023385,0.0697 0.025056,-0.0697 q 0.00188,-0.005 0.00647,-0.005 h 0.00459 q 0.00459,0 0.00647,0.005 l 0.025056,0.0697 z"
         style="stroke-width:0.26458332"
         id="path9471" />
      <path
         d="m 3.5150131,295.97438 q -0.030484,-0.006 -0.030484,-0.0311 0,-0.009 0.00459,-0.0157 0.00459,-0.007 0.013572,-0.0113 0.00919,-0.004 0.022341,-0.004 0.012945,0 0.022341,0.004 0.0094,0.004 0.014198,0.009 0.00501,0.006 0.00501,0.0109 0,0.002 -0.00167,0.004 -0.00167,0.001 -0.00397,0.001 h -0.00689 q -0.00397,0 -0.00626,-0.003 -0.00647,-0.008 -0.022759,-0.008 -0.0096,0 -0.01566,0.004 -0.00585,0.004 -0.00585,0.01 0,0.005 0.00292,0.008 0.00292,0.003 0.00877,0.004 0.00585,0.002 0.020671,0.005 0.018374,0.004 0.0261,0.0121 0.00773,0.008 0.00773,0.0198 0,0.009 -0.00543,0.0159 -0.00522,0.007 -0.015242,0.0119 -0.00981,0.004 -0.022968,0.004 -0.012945,0 -0.022968,-0.004 -0.00981,-0.004 -0.015242,-0.01 -0.00543,-0.006 -0.00543,-0.0111 0,-0.002 0.00167,-0.004 0.00167,-0.002 0.00397,-0.002 h 0.00752 q 0.00188,0 0.00334,4.1e-4 0.00146,4.2e-4 0.00271,0.002 0.00689,0.01 0.024429,0.01 0.00981,0 0.017121,-0.004 0.00752,-0.004 0.00752,-0.0102 0,-0.005 -0.00376,-0.008 -0.00355,-0.003 -0.01044,-0.005 -0.00689,-0.002 -0.021506,-0.005 z"
         style="stroke-width:0.26458332"
         id="path9473" />
      <path
         d="m 3.6373679,295.91195 q 0.022341,0 0.035287,0.0142 0.012945,0.0142 0.012945,0.0386 v 0.006 q 0,0.002 -0.00167,0.004 -0.00167,0.002 -0.00397,0.002 h -0.071826 v 0.001 q 4.176e-4,0.0138 0.00835,0.0217 0.00814,0.008 0.02088,0.008 0.01044,0 0.016077,-0.003 0.00585,-0.003 0.01044,-0.008 0.00167,-0.002 0.00292,-0.002 0.00146,-6.3e-4 0.00376,-6.3e-4 h 0.00626 q 0.00251,0 0.00418,0.002 0.00167,0.002 0.00146,0.004 -8.352e-4,0.006 -0.00626,0.0117 -0.00522,0.006 -0.015242,0.01 -0.00981,0.004 -0.023594,0.004 -0.013363,0 -0.023803,-0.006 -0.01044,-0.006 -0.016704,-0.0171 -0.00606,-0.0109 -0.00731,-0.0244 -4.176e-4,-0.006 -4.176e-4,-0.01 0,-0.003 4.176e-4,-0.01 0.00125,-0.013 0.00731,-0.0234 0.00626,-0.0104 0.016495,-0.0165 0.01044,-0.006 0.024012,-0.006 z m 0.02944,0.0466 v -6.2e-4 q 0,-0.0127 -0.00814,-0.0203 -0.00793,-0.008 -0.021297,-0.008 -0.01211,0 -0.020671,0.008 -0.00835,0.008 -0.00856,0.0203 v 6.2e-4 z"
         style="stroke-width:0.26458332"
         id="path9475" />
      <path
         d="m 3.7659862,295.91404 q 0.0023,0 0.00397,0.002 0.00167,0.002 0.00167,0.004 v 0.007 q 0,0.002 -0.00167,0.004 -0.00167,0.002 -0.00397,0.002 h -0.01211 q -0.011693,0 -0.017956,0.006 -0.00606,0.006 -0.00606,0.0177 v 0.061 q 0,0.002 -0.00167,0.004 -0.00167,0.002 -0.00397,0.002 h -0.00773 q -0.0023,0 -0.00397,-0.002 -0.00167,-0.002 -0.00167,-0.004 v -0.0973 q 0,-0.002 0.00167,-0.004 0.00167,-0.002 0.00397,-0.002 h 0.00773 q 0.0023,0 0.00397,0.002 0.00167,0.002 0.00167,0.004 v 0.006 q 0.00418,-0.006 0.010022,-0.009 0.00585,-0.003 0.015242,-0.003 z"
         style="stroke-width:0.26458332"
         id="path9477" />
    </g>
  </g>
</svg>
